<mxfile host="app.diagrams.net" modified="2021-07-12T07:21:13.639Z" agent="5.0 (Macintosh; Intel Mac OS X 10_15_7) AppleWebKit/537.36 (KHTML, like Gecko) Chrome/91.0.4472.114 Safari/537.36" etag="IpizOl0LckXDYlq6auqM" version="14.8.4" type="github">
  <diagram id="uqD9V3ikO-ROYdY2t3Fw" name="Page-1">
    <mxGraphModel dx="1169" dy="565" grid="1" gridSize="10" guides="1" tooltips="1" connect="1" arrows="1" fold="1" page="1" pageScale="1" pageWidth="827" pageHeight="1169" math="0" shadow="0">
      <root>
        <mxCell id="0" />
        <mxCell id="1" parent="0" />
        <mxCell id="psunrC6ihAXzlD8jciZN-12" style="edgeStyle=orthogonalEdgeStyle;rounded=0;orthogonalLoop=1;jettySize=auto;html=1;exitX=0.5;exitY=1;exitDx=0;exitDy=0;entryX=0.5;entryY=0;entryDx=0;entryDy=0;" edge="1" parent="1" source="psunrC6ihAXzlD8jciZN-2" target="psunrC6ihAXzlD8jciZN-6">
          <mxGeometry relative="1" as="geometry" />
        </mxCell>
        <mxCell id="psunrC6ihAXzlD8jciZN-2" value="开始" style="ellipse;whiteSpace=wrap;html=1;" vertex="1" parent="1">
          <mxGeometry x="210" y="20" width="120" height="80" as="geometry" />
        </mxCell>
        <mxCell id="psunrC6ihAXzlD8jciZN-14" style="edgeStyle=orthogonalEdgeStyle;rounded=0;orthogonalLoop=1;jettySize=auto;html=1;exitX=0.5;exitY=1;exitDx=0;exitDy=0;entryX=0.5;entryY=0;entryDx=0;entryDy=0;" edge="1" parent="1" source="psunrC6ihAXzlD8jciZN-3" target="psunrC6ihAXzlD8jciZN-4">
          <mxGeometry relative="1" as="geometry" />
        </mxCell>
        <mxCell id="psunrC6ihAXzlD8jciZN-3" value="章节信息字段召回" style="rounded=0;whiteSpace=wrap;html=1;" vertex="1" parent="1">
          <mxGeometry x="210" y="200" width="120" height="60" as="geometry" />
        </mxCell>
        <mxCell id="psunrC6ihAXzlD8jciZN-15" style="edgeStyle=orthogonalEdgeStyle;rounded=0;orthogonalLoop=1;jettySize=auto;html=1;exitX=0.5;exitY=1;exitDx=0;exitDy=0;entryX=0.5;entryY=0;entryDx=0;entryDy=0;" edge="1" parent="1" source="psunrC6ihAXzlD8jciZN-4" target="psunrC6ihAXzlD8jciZN-7">
          <mxGeometry relative="1" as="geometry" />
        </mxCell>
        <mxCell id="psunrC6ihAXzlD8jciZN-4" value="倒排算分判断query词是否都在同一章节内" style="rounded=0;whiteSpace=wrap;html=1;" vertex="1" parent="1">
          <mxGeometry x="210" y="280" width="120" height="60" as="geometry" />
        </mxCell>
        <mxCell id="psunrC6ihAXzlD8jciZN-13" style="edgeStyle=orthogonalEdgeStyle;rounded=0;orthogonalLoop=1;jettySize=auto;html=1;exitX=0.5;exitY=1;exitDx=0;exitDy=0;entryX=0.5;entryY=0;entryDx=0;entryDy=0;" edge="1" parent="1" source="psunrC6ihAXzlD8jciZN-6" target="psunrC6ihAXzlD8jciZN-3">
          <mxGeometry relative="1" as="geometry" />
        </mxCell>
        <mxCell id="psunrC6ihAXzlD8jciZN-6" value="query" style="rounded=0;whiteSpace=wrap;html=1;" vertex="1" parent="1">
          <mxGeometry x="210" y="120" width="120" height="60" as="geometry" />
        </mxCell>
        <mxCell id="psunrC6ihAXzlD8jciZN-16" style="edgeStyle=orthogonalEdgeStyle;rounded=0;orthogonalLoop=1;jettySize=auto;html=1;exitX=0.5;exitY=1;exitDx=0;exitDy=0;entryX=0.5;entryY=0;entryDx=0;entryDy=0;" edge="1" parent="1" source="psunrC6ihAXzlD8jciZN-7" target="psunrC6ihAXzlD8jciZN-8">
          <mxGeometry relative="1" as="geometry" />
        </mxCell>
        <mxCell id="psunrC6ihAXzlD8jciZN-7" value="按阈值过滤召回笔记" style="rounded=0;whiteSpace=wrap;html=1;" vertex="1" parent="1">
          <mxGeometry x="210" y="370" width="120" height="60" as="geometry" />
        </mxCell>
        <mxCell id="psunrC6ihAXzlD8jciZN-17" style="edgeStyle=orthogonalEdgeStyle;rounded=0;orthogonalLoop=1;jettySize=auto;html=1;exitX=0.5;exitY=1;exitDx=0;exitDy=0;entryX=0.5;entryY=0;entryDx=0;entryDy=0;" edge="1" parent="1" source="psunrC6ihAXzlD8jciZN-8" target="psunrC6ihAXzlD8jciZN-9">
          <mxGeometry relative="1" as="geometry" />
        </mxCell>
        <mxCell id="psunrC6ihAXzlD8jciZN-8" value="输出召回笔记+所在章节index" style="rounded=0;whiteSpace=wrap;html=1;" vertex="1" parent="1">
          <mxGeometry x="400" y="120" width="120" height="60" as="geometry" />
        </mxCell>
        <mxCell id="psunrC6ihAXzlD8jciZN-18" style="edgeStyle=orthogonalEdgeStyle;rounded=0;orthogonalLoop=1;jettySize=auto;html=1;exitX=0.5;exitY=1;exitDx=0;exitDy=0;entryX=0.5;entryY=0;entryDx=0;entryDy=0;" edge="1" parent="1" source="psunrC6ihAXzlD8jciZN-9" target="psunrC6ihAXzlD8jciZN-10">
          <mxGeometry relative="1" as="geometry" />
        </mxCell>
        <mxCell id="psunrC6ihAXzlD8jciZN-9" value="根据笔记id和章节index获取正排时间" style="rounded=0;whiteSpace=wrap;html=1;" vertex="1" parent="1">
          <mxGeometry x="400" y="200" width="120" height="60" as="geometry" />
        </mxCell>
        <mxCell id="psunrC6ihAXzlD8jciZN-19" style="edgeStyle=orthogonalEdgeStyle;rounded=0;orthogonalLoop=1;jettySize=auto;html=1;exitX=0.5;exitY=1;exitDx=0;exitDy=0;entryX=0.5;entryY=0;entryDx=0;entryDy=0;" edge="1" parent="1" source="psunrC6ihAXzlD8jciZN-10" target="psunrC6ihAXzlD8jciZN-11">
          <mxGeometry relative="1" as="geometry" />
        </mxCell>
        <mxCell id="psunrC6ihAXzlD8jciZN-10" value="输出笔记id与章节对应时间" style="rounded=0;whiteSpace=wrap;html=1;" vertex="1" parent="1">
          <mxGeometry x="400" y="280" width="120" height="60" as="geometry" />
        </mxCell>
        <mxCell id="psunrC6ihAXzlD8jciZN-11" value="结束" style="ellipse;whiteSpace=wrap;html=1;" vertex="1" parent="1">
          <mxGeometry x="400" y="370" width="120" height="80" as="geometry" />
        </mxCell>
      </root>
    </mxGraphModel>
  </diagram>
</mxfile>
